<?xml version="1.0" encoding="UTF-8" standalone="no"?>
<!-- Created with Inkscape (http://www.inkscape.org/) -->

<svg
   version="1.1"
   id="svg2"
   xml:space="preserve"
   width="227.69333"
   height="80.09333"
   viewBox="0 0 227.69333 80.09333"
   sodipodi:docname="anr-00.svg"
   inkscape:version="1.1.2 (0a00cf5339, 2022-02-04)"
   xmlns:inkscape="http://www.inkscape.org/namespaces/inkscape"
   xmlns:sodipodi="http://sodipodi.sourceforge.net/DTD/sodipodi-0.dtd"
   xmlns="http://www.w3.org/2000/svg"
   xmlns:svg="http://www.w3.org/2000/svg"><defs
     id="defs6" /><sodipodi:namedview
     id="namedview4"
     pagecolor="#ffffff"
     bordercolor="#666666"
     borderopacity="1.0"
     inkscape:pageshadow="2"
     inkscape:pageopacity="0.0"
     inkscape:pagecheckerboard="0"
     showgrid="false"
     inkscape:zoom="6.0432161"
     inkscape:cx="113.9294"
     inkscape:cy="40.044902"
     inkscape:window-width="1920"
     inkscape:window-height="1131"
     inkscape:window-x="1920"
     inkscape:window-y="0"
     inkscape:window-maximized="1"
     inkscape:current-layer="g8" /><g
     id="g8"
     inkscape:groupmode="layer"
     inkscape:label="ink_ext_XXXXXX"
     transform="matrix(1.3333333,0,0,-1.3333333,0,80.093333)"><g
       id="g10"
       transform="scale(0.1)"><path
         d="m 1605.93,580.555 c -11.94,0 -23.83,-2.657 -34.94,-7.934 -40.6,-19.301 -57.93,-68.031 -38.63,-108.633 9.35,-19.668 25.79,-34.515 46.31,-41.812 20.52,-7.293 42.64,-6.172 62.32,3.183 19.66,9.348 34.52,25.793 41.82,46.309 7.29,20.52 6.16,42.652 -3.19,62.316 v 0 c -9.35,19.668 -25.8,34.524 -46.31,41.821 -8.93,3.172 -18.17,4.75 -27.38,4.75 z m 0.13,-183.301 c -11.48,0 -23,1.973 -34.14,5.934 -25.59,9.097 -46.1,27.621 -57.77,52.152 -24.06,50.633 -2.45,111.414 48.19,135.484 24.52,11.656 52.13,13.059 77.72,3.965 25.59,-9.101 46.11,-27.621 57.77,-52.152 11.65,-24.532 13.07,-52.133 3.96,-77.719 -9.1,-25.59 -27.62,-46.105 -52.15,-57.766 -13.85,-6.582 -28.68,-9.898 -43.58,-9.898"
         style="fill:#181817;fill-opacity:1;fill-rule:nonzero;stroke:none"
         id="path12" /><path
         d="m 1605.93,536.008 c -5.32,0 -10.72,-1.153 -15.83,-3.582 -18.44,-8.762 -26.31,-30.895 -17.55,-49.332 8.77,-18.426 30.87,-26.289 49.33,-17.539 18.44,8.761 26.31,30.886 17.55,49.324 -6.34,13.32 -19.65,21.129 -33.5,21.129 z m 0.15,-94.192 c -21.39,0 -41.95,12.055 -51.73,32.629 -13.53,28.473 -1.37,62.645 27.1,76.184 28.45,13.527 62.65,1.379 76.18,-27.098 v 0 c 13.53,-28.472 1.38,-62.648 -27.1,-76.183 -7.9,-3.754 -16.24,-5.532 -24.45,-5.532"
         style="fill:#181817;fill-opacity:1;fill-rule:nonzero;stroke:none"
         id="path14" /><path
         d="M 267.539,91.6055 C 256.66,84.9453 244.863,81.625 232.168,81.625 c -22.988,0 -41.121,8.1641 -54.414,24.492 -13.313,16.321 -19.949,37.18 -19.949,62.574 0,16.922 3.465,31.883 10.425,44.895 6.946,12.996 17.688,22.672 32.2,29.019 14.511,6.348 32.644,8.918 54.414,7.711 6.035,-0.609 12.09,-1.062 18.136,-1.363 1.571,-0.078 3.028,-0.273 4.54,-0.414 V 123.344 c 0,-8.063 0.519,-15.672 1.359,-23 -3.68,-3.3284 -7.43,-6.3518 -11.34,-8.7385 z m 174.578,-4.9883 c -8.164,9.9805 -12.246,29.7738 -12.246,59.4028 v 171.406 c 0,47.758 -14.207,85.707 -42.613,113.82 -28.43,28.113 -72.871,42.172 -133.32,42.172 -26.614,0 -59.102,-2.875 -97.493,-8.613 -38.41,-5.758 -78.1559,-13.461 -119.2692,-23.129 V 307.449 h 4.543 c 42.3164,34.465 82.2192,63.629 119.7072,87.52 37.48,23.879 65.304,35.828 83.437,35.828 12.09,0 20.547,-7.711 25.403,-23.129 4.824,-15.418 7.254,-41.875 7.254,-79.359 v -51.024 c -2.231,0.852 -4.442,1.715 -6.805,2.504 -13.606,4.535 -27.524,8.008 -41.723,10.43 -14.207,2.414 -27.652,3.629 -40.359,3.629 -33.25,1.816 -64.387,-3.176 -93.4103,-14.961 C 66.2031,267.094 43.0781,249.551 25.8398,226.285 8.61328,203.004 0,176.246 0,146.02 0,121.227 5.57422,97.6406 16.7773,75.2734 27.9609,52.8984 44.7344,34.7656 67.1094,20.8594 89.4727,6.96484 116.086,0 146.914,0 c 29.024,0 54.426,5.89844 76.184,17.6836 21.765,11.7891 38.843,25.9883 51.238,42.6289 3.652,4.8984 6.766,9.6758 9.605,14.3906 4.813,-16.3945 12.286,-30.4648 22.59,-42.0586 C 325.879,10.8867 352.793,0 387.258,0 c 29.605,0 53.347,7.87109 71.187,23.5859 17.825,15.711 27.961,35.9649 30.383,60.7657 l -1.816,2.7226 c -21.77,-10.2969 -36.731,-10.4336 -44.895,-0.457"
         style="fill:#181817;fill-opacity:1;fill-rule:nonzero;stroke:none"
         id="path16" /><path
         d="m 1014.83,21.7656 c -7.25,27.2071 -13,50.793 -17.225,70.75 -4.238,19.9494 -6.343,41.4064 -6.343,64.3864 v 165.063 c 0,47.75 -14.219,84.937 -42.629,111.551 -28.43,26.597 -64.102,39.902 -107.024,39.902 -39.304,0 -72.703,-10.742 -100.214,-32.191 -19.204,-14.985 -34.407,-32 -45.797,-50.954 v 77.704 H 544.141 518.75 v -3.625 l 2.727,-9.977 c 7.246,-27.207 12.832,-50.789 16.777,-70.742 3.926,-19.953 5.887,-41.422 5.887,-64.391 v -162.34 c 0,-22.98 -1.961,-44.437 -5.887,-64.3864 -3.945,-19.957 -9.531,-43.5429 -16.777,-70.75 L 518.75,11.7852 V 8.16406 h 25.391 151.457 26.304 v 3.62114 l -2.722,9.9804 c -7.254,27.2071 -13.008,50.793 -17.239,70.75 -4.226,19.9494 -6.343,41.4064 -6.343,64.3864 v 201.95 c 25.129,14.628 49.027,22.062 71.648,22.062 21.152,-0.613 38.547,-7.258 52.149,-19.953 13.601,-12.699 20.402,-32.652 20.402,-59.859 v -144.2 c 0,-22.98 -1.965,-44.437 -5.891,-64.3864 -3.945,-19.957 -9.519,-43.5429 -16.777,-70.75 l -2.727,-9.9804 V 8.16406 h 25.395 151.465 26.298 v 3.62114 l -2.73,9.9804"
         style="fill:#181817;fill-opacity:1;fill-rule:nonzero;stroke:none"
         id="path18" /><path
         d="m 1341.78,474.781 c -26.31,-8.164 -48.23,-22.535 -65.75,-43.082 -14.08,-16.496 -26.11,-35.844 -36.28,-57.781 v 94.059 h -151.46 -25.4 v -3.625 l 2.73,-9.977 c 7.25,-27.207 12.84,-50.789 16.77,-70.742 3.93,-19.953 5.9,-41.422 5.9,-64.391 v -162.34 c 0,-22.98 -1.97,-44.437 -5.9,-64.3864 -3.93,-19.957 -9.52,-43.5429 -16.77,-70.75 l -2.73,-9.9804 V 8.16406 h 25.4 151.46 26.29 v 3.62114 l -2.72,9.9804 c -7.26,27.2071 -13.01,50.793 -17.23,70.75 -4.23,19.9494 -6.34,41.4064 -6.34,64.3864 v 194.211 c 17.87,10.696 35.86,15.992 53.96,15.742 21.45,-0.312 41.56,-5.894 60.3,-16.777 18.74,-10.883 35.68,-24.801 50.79,-41.719 h 4.54 l 23.58,161.43 c -34.46,11.481 -64.84,13.149 -91.14,4.992"
         style="fill:#181817;fill-opacity:1;fill-rule:nonzero;stroke:none"
         id="path20" /></g></g></svg>
