<?xml version="1.0" encoding="UTF-8" standalone="no"?>
<svg
   fill="none"
   viewBox="0 0 128 128"
   version="1.1"
   id="svg6"
   sodipodi:docname="dates-logo.svg"
   inkscape:version="1.1.2 (0a00cf5339, 2022-02-04)"
   xmlns:inkscape="http://www.inkscape.org/namespaces/inkscape"
   xmlns:sodipodi="http://sodipodi.sourceforge.net/DTD/sodipodi-0.dtd"
   xmlns="http://www.w3.org/2000/svg"
   xmlns:svg="http://www.w3.org/2000/svg">
  <defs
     id="defs10">
    <inkscape:path-effect
       effect="spiro"
       id="path-effect17756"
       is_visible="true"
       lpeversion="1" />
    <inkscape:path-effect
       effect="spiro"
       id="path-effect16716"
       is_visible="true"
       lpeversion="1" />
    <inkscape:path-effect
       effect="spiro"
       id="path-effect16710"
       is_visible="true"
       lpeversion="1" />
    <inkscape:path-effect
       effect="spiro"
       id="path-effect15798"
       is_visible="true"
       lpeversion="1" />
    <inkscape:path-effect
       effect="spiro"
       id="path-effect15568"
       is_visible="true"
       lpeversion="1" />
    <inkscape:path-effect
       effect="spiro"
       id="path-effect15562"
       is_visible="true"
       lpeversion="1" />
    <inkscape:path-effect
       effect="spiro"
       id="path-effect15556"
       is_visible="true"
       lpeversion="1" />
    <inkscape:path-effect
       effect="spiro"
       id="path-effect15550"
       is_visible="true"
       lpeversion="1" />
    <inkscape:path-effect
       effect="spiro"
       id="path-effect14316"
       is_visible="true"
       lpeversion="1" />
    <inkscape:path-effect
       effect="spiro"
       id="path-effect14312"
       is_visible="true"
       lpeversion="1" />
    <inkscape:path-effect
       effect="spiro"
       id="path-effect13868"
       is_visible="true"
       lpeversion="1" />
    <inkscape:path-effect
       effect="spiro"
       id="path-effect13782"
       is_visible="true"
       lpeversion="1" />
  </defs>
  <sodipodi:namedview
     id="namedview8"
     pagecolor="#ffffff"
     bordercolor="#666666"
     borderopacity="1.0"
     inkscape:pageshadow="2"
     inkscape:pageopacity="0.0"
     inkscape:pagecheckerboard="0"
     showgrid="false"
     inkscape:zoom="4.1155824"
     inkscape:cx="95.855205"
     inkscape:cy="56.978569"
     inkscape:window-width="1920"
     inkscape:window-height="1011"
     inkscape:window-x="0"
     inkscape:window-y="0"
     inkscape:window-maximized="1"
     inkscape:current-layer="svg6" />
  <path
     fill="currentColor"
     d="m 19.173913,-101.36044 c 0,0 16.5,-8 33,-8 l 12.4,-38.3 c 0.5,-2 1.8,-3.2 3.3,-3.2 1.6,0 3,1.3 3.4,3.2 l 12.4,38.3 c 19.599997,0 32.999997,8 32.999997,8 l -27.999997,-76 c -0.8,-2.3 -2.2,-3.7 -4,-3.7 h -33.5 c -1.8,0 -3.1,1.4 -4,3.7 z"
     id="path2" />
  <path
     fill="currentColor"
     d="m 50.873913,-76.660442 c -5.5,-5 -7.2,-15.7 -4.9,-23.399998 4,4.899998 9.6,6.399998 15.4,7.299998 8.9,1.3 17.6,0.8 25.9,-3.2 l 2.8,-1.7 a 18,18 0 0 1 -7.2,20 l -5.5,3.8 c -5.6,3.8 -7.2,8.2 -5,14.7 l 0.2,0.7 a 14,14 0 0 1 -6.6,-5.6 15.8,15.8 0 0 1 -2.6,-8.6 c 0,-1.5 0,-3 -0.2,-4.5 -0.5,-3.7 -2.2,-5.3 -5.5,-5.4 -3.3,-0.1 -5.9,2 -6.6,5.2 z"
     id="path4" />
  <text
     xml:space="preserve"
     style="font-size:25px;line-height:1.25;font-family:'CMU Concrete';-inkscape-font-specification:'CMU Concrete';text-align:center;letter-spacing:0px;word-spacing:0px;text-anchor:middle;fill:#1f1f1f"
     x="-118.86174"
     y="70.931541"
     id="text2083"><tspan
       sodipodi:role="line"
       id="tspan2081"
       x="-118.86174"
       y="70.931541"
       style="font-style:normal;font-variant:normal;font-weight:normal;font-stretch:normal;font-family:'Noto Serif';-inkscape-font-specification:'Noto Serif'">DATeS</tspan></text>
  <g
     aria-label="DATeS"
     id="text2083-8"
     style="font-size:25px;line-height:1.25;font-family:'CMU Concrete';-inkscape-font-specification:'CMU Concrete';text-align:center;letter-spacing:0px;word-spacing:0px;text-anchor:middle"
     transform="matrix(1.7416066,0,0,1.7416066,205.99138,108.54785)"
     fill="currentColor">
    <path
       d="m -117.83593,-9.2025194 v -1.0499996 h 0.325 q 0.85,0 1.45,-0.3 0.6,-0.325 0.6,-1.5 v -12.25 q 0,-1.1 -0.625,-1.4 -0.6,-0.3 -1.425,-0.3 h -0.325 v -1.05 h 7.65 q 3.875,0 6,2.325 2.15,2.325 2.15,6.575 0,2.725 -0.925,4.75 -0.9,2 -2.7,3.1 -1.8,1.0999996 -4.525,1.0999996 z m 7.075,-1.2749996 q 2.975,0 4.45,-1.975 1.5,-2 1.5,-5.7 0,-3.725 -1.475,-5.675 -1.475,-1.975 -4.45,-1.975 h -2.2 v 15.325 z"
       style="font-family:'Noto Serif';-inkscape-font-specification:'Noto Serif'"
       id="path12872" />
    <path
       d="m -101.11096,-9.2025194 v -1.0499996 h 0.475 q 0.725001,0 1.075001,-0.375 0.375,-0.375 0.825,-1.575 l 5.55,-14.85 h 1.95 l 5.65,15.475 q 0.275,0.775 0.65,1.05 0.4,0.275 1.125,0.275 h 0.325 v 1.0499996 h -6.875 v -1.0499996 h 0.575 q 1.5,0 1.5,-1.2 0,-0.2 -0.05,-0.425 -0.05,-0.225 -0.15,-0.5 l -1,-2.8 h -6.575 l -0.95,2.625 q -0.225,0.6 -0.225,1.075 0,1.225 1.65,1.225 h 0.575 v 1.0499996 z m 5.525001,-7.2249996 h 5.65 l -1.55,-4.375 q -0.4,-1.1 -0.725,-2.075 -0.325,-0.975 -0.525,-1.875 -0.175,0.9 -0.45,1.725 -0.275,0.825 -0.7,2 z"
       style="font-family:'Noto Serif';-inkscape-font-specification:'Noto Serif'"
       id="path12874" />
    <path
       d="m -63.736052,-8.9525194 q -2.725,0 -4.275,-1.7999996 -1.525,-1.8 -1.525,-5.05 0,-3.5 1.45,-5.275 1.45,-1.775 4.1,-1.775 2.425,0 3.8,1.5 1.4,1.5 1.4,4.475 v 1.15 h -8.325 q 0.05,2.725 0.975,3.975 0.95,1.225 2.75,1.225 1.3,0 2.2,-0.525 0.925,-0.55 1.375,-1.225 0.175,0.075 0.325,0.3 0.15,0.225 0.15,0.55 0,0.5 -0.475,1.075 -0.475,0.5749996 -1.45,0.9999996 -0.975,0.4 -2.475,0.4 z m 2.425,-8.1249996 q 0,-2 -0.625,-3.2 -0.6,-1.225 -2.1,-1.225 -1.375,0 -2.15,1.15 -0.75,1.125 -0.875,3.275 z"
       style="font-family:'Noto Serif';-inkscape-font-specification:'Noto Serif'"
       id="path12878" />
    <path
       d="m -51.361052,-8.9525194 q -2.45,0 -3.725,-0.975 -1.25,-0.9749996 -1.25,-2.5499996 0,-0.75 0.475,-1.2 0.475,-0.475 1.325,-0.475 0.05,1.025 0.4,1.95 0.35,0.9 1.075,1.475 0.725,0.55 1.9,0.55 1.675,0 2.625,-0.8 0.95,-0.825 0.95,-2.35 0,-0.925 -0.375,-1.55 -0.35,-0.65 -1.2,-1.2 -0.825,-0.55 -2.3,-1.15 -2.325,-0.95 -3.475,-2.225 -1.125,-1.275 -1.125,-3.325 0,-1.425 0.7,-2.425 0.725,-1.025 1.95,-1.55 1.25,-0.55 2.825,-0.55 2.225,0 3.45,0.85 1.225,0.85 1.225,1.95 0,0.8 -0.55,1.225 -0.525,0.4 -1.425,0.4 0,-0.775 -0.275,-1.5 -0.25,-0.725 -0.875,-1.2 -0.6,-0.475 -1.65,-0.475 -1.45,0 -2.25,0.775 -0.8,0.775 -0.8,2.075 0,1 0.35,1.7 0.375,0.675 1.225,1.225 0.85,0.525 2.3,1.125 2.2,0.9 3.425,2.075 1.225,1.175 1.225,3.1 0,2.375 -1.675,3.7 -1.65,1.3249996 -4.475,1.3249996 z"
       style="font-family:'Noto Serif';-inkscape-font-specification:'Noto Serif'"
       id="path12880" />
  </g>
  <path
     id="path13232"
     style="font-size:25px;line-height:1.25;font-family:'Noto Serif';-inkscape-font-specification:'Noto Serif';text-align:center;letter-spacing:0px;word-spacing:0px;text-anchor:middle;stroke-width:1.74161"
     d="m 58.849426,38.162458 v 13.47364 h 2.265448 l 0.217701,-1.870868 c 0.116113,-0.957883 0.42157,-1.786506 0.915024,-2.483149 0.493455,-0.72567 1.376051,-1.088504 2.653228,-1.088504 h 4.180538 v 41.580862 c 0,1.277175 -0.362834,2.090602 -1.088505,2.438929 -0.696642,0.319291 -1.521865,0.479619 -2.479748,0.479619 h -1.003465 v 1.826653 h 13.541671 v -1.826653 h -1.000063 c -0.98691,0 -1.830727,-0.175523 -2.52737,-0.523838 C 73.827242,89.791798 73.4796,88.920987 73.4796,87.556739 V 46.193577 h 4.224759 c 1.306205,0 2.203994,0.362834 2.697448,1.088504 0.493455,0.696643 0.79891,1.525266 0.915023,2.483149 l 0.217701,1.870868 h 2.265451 v -13.47364 h -2.265451 l -0.217701,1.870865 c -0.116113,0.957883 -0.421568,1.786509 -0.915023,2.483152 -0.493454,0.725667 -1.391243,1.088504 -2.697448,1.088504 -4.285661,-0.02814 -8.518159,0 -12.803532,0 -1.277177,0 -2.159773,-0.362837 -2.653228,-1.088504 -0.493454,-0.696646 -0.798911,-1.525269 -0.915024,-2.483152 l -0.217701,-1.870865 z"
     sodipodi:nodetypes="cccccscscsccccscscscccccccccccccc"
     fill="currentColor" />
  <g
     id="g19153"
     stroke="currentColor">
    <path
       style="fill:none"
       d="m 86.170882,40.981408 c 0.501622,-1.72232 1.61606,-3.259343 3.097115,-4.271513 1.481055,-1.01217 3.31792,-1.492102 5.104801,-1.333771 2.42791,0.215131 4.593066,1.532885 6.766732,2.6357 1.08683,0.551407 2.20526,1.058726 3.38759,1.354262 1.18234,0.295535 2.43836,0.372127 3.61723,0.06307 1.11849,-0.293226 2.12019,-0.917384 3.06149,-1.588923 0.9413,-0.671538 1.8469,-1.402236 2.86406,-1.952148 2.33383,-1.261755 5.21026,-1.474346 7.70423,-0.569403"
       id="path13780"
       inkscape:path-effect="#path-effect13782"
       inkscape:original-d="m 86.170882,40.981408 c 1.574643,-1.866686 6.630756,-3.735114 8.201916,-5.605284 1.571159,-1.87017 9.182772,2.703765 13.771552,4.053034 4.58878,1.34927 3.95211,-2.358973 5.92555,-3.541071 1.97344,-1.1821 6.29349,-0.935756 7.70423,-0.569403"
       sodipodi:nodetypes="csssc" />
    <path
       style="fill:none"
       d="m 86.449712,44.717534 c 0.58518,-1.605408 1.681965,-3.019935 3.091037,-3.986521 1.409072,-0.966585 3.123616,-1.480553 4.832049,-1.448502 2.399498,0.04502 4.640852,1.118784 6.836712,2.087186 1.09793,0.484201 2.20975,0.948644 3.37,1.254807 1.16024,0.306163 2.37604,0.45111 3.56484,0.287867 1.67043,-0.229378 3.19335,-1.046778 4.68565,-1.83163 1.49229,-0.784852 3.0432,-1.565232 4.72312,-1.709441 1.4828,-0.127287 3.00534,0.269492 4.23742,1.104283"
       id="path13864"
       inkscape:path-effect="#path-effect13868"
       inkscape:original-d="m 86.449712,44.717534 c 1.574642,-1.866686 6.351926,-3.564852 7.923086,-5.435023 1.571159,-1.87017 9.182772,2.280591 13.771552,3.62986 4.58878,1.34927 7.43532,-2.358973 9.40877,-3.541071 1.97344,-1.1821 2.82668,0.73793 4.23742,1.104283"
       sodipodi:nodetypes="csssc" />
    <path
       style="fill:none"
       d="m 86.885308,47.606283 c 3.530397,-2.414892 7.955892,-3.487312 12.200132,-2.95643 3.35188,0.419264 6.52019,1.78641 9.85532,2.32291 4.38493,0.705375 8.99712,-0.08859 12.89378,-2.219597"
       id="path14310"
       inkscape:path-effect="#path-effect14312"
       inkscape:original-d="m 86.885308,47.606283 c 3.115623,-0.745975 9.087993,-2.206971 12.200132,-2.95643 3.11214,-0.749458 6.57196,1.550349 9.85532,2.32291 3.28337,0.772561 8.63734,-1.286377 12.89378,-2.219597"
       sodipodi:nodetypes="cssc" />
    <path
       style="fill:none"
       d="m 87.2436,50.281287 c 4.452999,-2.105325 9.749849,-2.353293 14.38006,-0.673193 2.46408,0.894106 4.71136,2.294251 7.11688,3.335683 1.20276,0.520716 2.45086,0.9529 3.74283,1.173321 1.29197,0.220421 2.63205,0.2245 3.90178,-0.100393 1.31934,-0.337587 2.54561,-1.03185 3.51393,-1.989447 0.96832,-0.957597 1.67619,-2.176057 2.02845,-3.491561"
       id="path14314"
       inkscape:path-effect="#path-effect14316"
       inkscape:original-d="m 87.2436,50.281287 c 4.480608,0.637467 9.902934,-1.307176 14.38006,-0.673193 4.47713,0.633983 10.50567,3.885732 14.76149,4.408611 4.23181,0.519929 -0.76675,-9.027384 5.54238,-5.481008"
       sodipodi:nodetypes="cssc" />
    <path
       style="fill:none"
       d="m 1.6889322,37.617133 c 0.6459104,0.0116 1.2939041,-0.108276 1.8929146,-0.350188 1.4273014,-0.576419 2.4853404,-1.786942 3.7359772,-2.684358 0.6253183,-0.448708 1.3171217,-0.826605 2.0710232,-0.981507 0.7539018,-0.154902 1.5779678,-0.06834 2.2232218,0.351197 0.365216,0.237458 0.65971,0.57003 0.911564,0.925471 0.251855,0.355442 0.465046,0.736496 0.69952,1.103634 0.234475,0.367139 0.493388,0.723889 0.820666,1.011392 0.327279,0.287504 0.72945,0.503613 1.162471,0.551176 0.287898,0.03162 0.581765,-0.0121 0.854445,-0.109727 0.27268,-0.09763 0.524721,-0.248178 0.75152,-0.428309 0.4536,-0.360261 0.802952,-0.832611 1.140538,-1.30333 0.337586,-0.470719 0.673328,-0.950574 1.107717,-1.33378 0.434389,-0.383206 0.985404,-0.666356 1.564652,-0.662839 0.308576,0.0019 0.614246,0.08526 0.889659,0.224435 0.275412,0.139179 0.521227,0.333152 0.734274,0.556387 0.426094,0.446469 0.718029,1.002039 0.982826,1.559511 0.264796,0.557472 0.510392,1.128887 0.863391,1.635131 0.352998,0.506245 0.829531,0.950827 1.41683,1.140489 0.412038,0.133064 0.861313,0.133647 1.282353,0.03262 0.42104,-0.101029 0.814707,-0.300864 1.165062,-0.555292 0.700709,-0.508855 1.221417,-1.222052 1.726921,-1.925182 0.505504,-0.70313 1.019034,-1.420083 1.710636,-1.941247 0.345801,-0.260583 0.734623,-0.46891 1.152836,-0.581069 0.418213,-0.11216 0.86678,-0.125485 1.283265,-0.0071 0.651172,0.185137 1.177525,0.674987 1.568426,1.227706 0.390901,0.552719 0.669091,1.175468 0.999087,1.766572 0.329996,0.591104 0.726949,1.166567 1.287139,1.546683 0.280094,0.190059 0.59873,0.327525 0.933468,0.377782 0.334738,0.05026 0.685715,0.01076 0.991806,-0.133755 0.423568,-0.199973 0.734799,-0.584701 0.952264,-0.99956 0.217465,-0.414859 0.354271,-0.866203 0.525034,-1.302367 0.170762,-0.436164 0.383028,-0.868296 0.719286,-1.194377 0.16813,-0.16304 0.366287,-0.297194 0.585903,-0.378549 0.219616,-0.08136 0.461128,-0.108541 0.690898,-0.06321 0.328903,0.0649 0.617649,0.275594 0.820948,0.542161 0.2033,0.266566 0.327423,0.58608 0.408378,0.911403 0.161911,0.650645 0.162182,1.342414 0.410183,1.965351 0.168618,0.42354 0.448435,0.799819 0.793267,1.097996 0.344831,0.298177 0.753529,0.519215 1.186087,0.663132 0.865116,0.287833 1.809337,0.265649 2.702749,0.08374 1.786823,-0.363813 3.404805,-1.338108 5.192319,-1.698511 0.601462,-0.121268 1.217225,-0.171449 1.830386,-0.149164"
       id="path15796"
       inkscape:path-effect="#path-effect15798"
       inkscape:original-d="m 1.6889322,37.617133 c 0.6320461,-0.115655 -0.78490067,0.753626 1.8929146,-0.350188 2.6778154,-1.103815 6.8310732,-4.512967 8.0302222,-3.314668 1.199148,1.198298 1.786856,4.869926 3.594221,3.591673 1.807366,-1.278254 3.788805,-5.544378 5.418872,-3.837985 1.630069,1.706392 2.112214,6.773959 4.88698,5.115953 2.774765,-1.658007 6.393357,-6.573313 8.321073,-4.977244 1.927717,1.596071 4.81638,6.997494 5.779926,4.784988 0.963545,-2.212507 2.730485,-5.979666 3.473385,-3.938058 0.742902,2.041609 -1.653041,3.369054 1.639509,3.418915 3.292548,0.04986 6.584022,0.09865 9.874422,0.146359 3.290399,0.04771 1.221332,-0.09837 1.830386,-0.149164"
       sodipodi:nodetypes="cssssssssc" />
    <path
       style="fill:none"
       d="m 1.6889322,41.915469 c 0.6457476,0.0084 1.2929085,-0.111331 1.8929146,-0.350189 1.4227215,-0.566374 2.4942167,-1.748192 3.7450002,-2.631627 0.6253918,-0.441718 1.3127991,-0.815959 2.0611235,-0.977946 0.7483245,-0.161986 1.5654805,-0.09554 2.2240985,0.294905 0.371296,0.220116 0.679754,0.533514 0.945867,0.873361 0.266112,0.339847 0.493305,0.708045 0.733212,1.066871 0.239907,0.358827 0.494956,0.711187 0.807802,1.008574 0.312846,0.297387 0.688311,0.5393 1.10734,0.642867 0.459315,0.113523 0.948235,0.05518 1.397866,-0.0921 0.449631,-0.147273 0.865944,-0.379964 1.273433,-0.6204 0.40749,-0.240437 0.811166,-0.490975 1.245595,-0.678402 0.434429,-0.187428 0.905539,-0.31076 1.377802,-0.282037 0.492983,0.02998 0.964842,0.224664 1.38171,0.489526 0.416868,0.264863 0.784743,0.59887 1.147014,0.934565 0.362272,0.335694 0.723005,0.676283 1.129313,0.957076 0.406309,0.280792 0.86393,0.501724 1.353119,0.569736 0.424188,0.05898 0.860672,4.84e-4 1.264961,-0.140811 0.404288,-0.141296 0.777386,-0.36367 1.113268,-0.629372 0.671763,-0.531402 1.190601,-1.227061 1.715365,-1.904022 0.524764,-0.676962 1.075037,-1.354253 1.787626,-1.82951 0.356295,-0.237629 0.751381,-0.421704 1.169823,-0.512914 0.418443,-0.09121 0.860926,-0.08729 1.27003,0.03939 0.642643,0.198991 1.161853,0.684447 1.554989,1.23037 0.393136,0.545923 0.680554,1.159247 1.017488,1.741538 0.336933,0.582292 0.737263,1.148002 1.292911,1.527268 0.277824,0.189634 0.592389,0.329289 0.923901,0.386266 0.331513,0.05698 0.680196,0.02906 0.990637,-0.100455 0.284673,-0.118761 0.529375,-0.318121 0.74234,-0.541256 0.212964,-0.223135 0.39754,-0.47137 0.592451,-0.710437 0.194911,-0.239066 0.402671,-0.471348 0.652006,-0.652938 0.249334,-0.181591 0.544714,-0.310915 0.852959,-0.322244 0.245293,-0.009 0.489921,0.0571 0.708924,0.167952 0.219003,0.11085 0.413689,0.265275 0.58919,0.436884 0.351002,0.343216 0.628245,0.755413 0.975024,1.102896 0.608578,0.609815 1.4163,0.999306 2.25744,1.185652 0.84114,0.186347 1.716282,0.177873 2.570722,0.06754 1.708879,-0.220669 3.343965,-0.840082 5.04626,-1.106831 0.605325,-0.09485 1.21769,-0.144758 1.830386,-0.149164"
       id="path16706"
       inkscape:path-effect="#path-effect16710"
       inkscape:original-d="m 1.6889322,41.915469 c 0.6320461,-0.115656 -0.78490067,0.753626 1.8929146,-0.350189 2.6778154,-1.103815 6.8310732,-4.512966 8.0302222,-3.314668 1.199148,1.198299 1.786856,4.869926 3.594221,3.591673 1.807366,-1.278254 3.664629,-3.379328 5.294696,-1.672935 1.630069,1.706392 2.23639,4.60891 5.011156,2.950903 2.774765,-1.658006 6.393357,-6.573313 8.321073,-4.977243 1.927717,1.596071 4.81638,6.997493 5.779926,4.784987 0.963545,-2.212507 2.096855,-4.268483 2.839756,-2.226875 0.742901,2.041608 -1.019412,1.657871 2.273138,1.707732 3.292548,0.04986 6.584022,0.09865 9.874422,0.146359 3.290399,0.04771 1.221332,-0.09837 1.830386,-0.149164"
       sodipodi:nodetypes="csssssssscsc" />
    <path
       style="fill:none"
       d="m 1.6889322,46.213804 c 0.6437209,-0.02146 1.2841225,-0.139929 1.8929146,-0.350189 1.081204,-0.373417 2.0407775,-1.024953 3.0629067,-1.538464 0.5110646,-0.256756 1.0420564,-0.480501 1.5985028,-0.612706 0.5564463,-0.132205 1.1407526,-0.170791 1.701487,-0.05815 0.9629907,0.193444 1.7778037,0.807544 2.5838637,1.368826 0.40303,0.280642 0.814483,0.553118 1.259506,0.760837 0.445024,0.207718 0.927112,0.349738 1.418177,0.356664 0.488368,0.0069 0.970942,-0.119784 1.423223,-0.304156 0.452281,-0.184373 0.878561,-0.425914 1.307088,-0.660254 0.428527,-0.234341 0.862985,-0.46315 1.325691,-0.619528 0.462706,-0.156378 0.958037,-0.238556 1.441914,-0.172121 0.476492,0.06542 0.924889,0.272563 1.324689,0.539928 0.3998,0.267366 0.755562,0.594549 1.106036,0.923931 0.350473,0.329382 0.698753,0.663479 1.087023,0.947328 0.388271,0.283849 0.820829,0.517836 1.290188,0.622841 0.701731,0.156991 1.444116,0.01488 2.104912,-0.268707 0.660795,-0.283587 1.253383,-0.702146 1.837914,-1.120948 0.584531,-0.418803 1.17142,-0.843862 1.825387,-1.142859 0.653967,-0.298998 1.388381,-0.466848 2.096698,-0.342916 0.584603,0.102286 1.119817,0.396596 1.598679,0.747186 0.478863,0.350591 0.911496,0.759847 1.374188,1.131518 0.462692,0.371671 0.964591,0.710188 1.530232,0.889834 0.565641,0.179647 1.205391,0.186415 1.732989,-0.08536 0.52576,-0.270832 0.880657,-0.776214 1.263499,-1.226997 0.191421,-0.225391 0.396212,-0.442589 0.637658,-0.613314 0.241447,-0.170724 0.522935,-0.293772 0.817992,-0.313384 0.249331,-0.01657 0.500313,0.04136 0.72781,0.144728 0.227497,0.103371 0.432718,0.251055 0.619688,0.416835 0.373939,0.33156 0.677632,0.735518 1.046247,1.072988 0.632306,0.578881 1.441753,0.944641 2.280721,1.12084 0.838968,0.176198 1.708287,0.169769 2.559427,0.06743 1.702282,-0.204669 3.339004,-0.785574 5.034274,-1.041915 0.605748,-0.09159 1.2178,-0.141473 1.830386,-0.149164"
       id="path16712"
       inkscape:path-effect="#path-effect16716"
       inkscape:original-d="m 1.6889322,46.213804 c 0.6320461,-0.115655 -0.78490067,0.753626 1.8929146,-0.350189 2.6778154,-1.103814 5.163748,-3.40762 6.3628965,-2.209322 1.1991487,1.198299 3.4541817,3.76458 5.2615467,2.486327 1.807366,-1.278254 3.867849,-3.462452 5.497916,-1.756059 1.630069,1.706392 2.03317,4.692034 4.807936,3.034028 2.774765,-1.658007 5.937195,-4.4715 7.864911,-2.87543 1.927717,1.596071 5.272542,4.895679 6.236088,2.683174 0.963545,-2.212507 1.976248,-4.195304 2.719149,-2.153695 0.742901,2.041608 -0.898805,1.584691 2.393745,1.634551 3.292548,0.04986 6.584022,0.09865 9.874422,0.14636 3.290399,0.04771 1.221332,-0.09837 1.830386,-0.149164"
       sodipodi:nodetypes="csssssssscsc" />
    <path
       style="fill:none"
       d="M 1.6889322,50.512139 C 2.3357476,50.548675 2.9909114,50.42747 3.5818468,50.161951 4.308416,49.835489 4.9199229,49.305317 5.5523129,48.821 6.184703,48.336683 6.8745677,47.881037 7.6595967,47.746094 c 0.6727192,-0.115638 1.369717,0.01562 2.0046194,0.266263 0.6349019,0.250644 1.2168369,0.616637 1.7900599,0.987228 0.573224,0.37059 1.145047,0.749656 1.767323,1.030182 0.622277,0.280527 1.304033,0.460451 1.984691,0.409189 0.974938,-0.07343 1.845546,-0.603838 2.707773,-1.064772 0.431114,-0.230466 0.872581,-0.447763 1.341322,-0.586528 0.468741,-0.138764 0.968704,-0.196744 1.448821,-0.104759 0.473758,0.09077 0.910787,0.323821 1.29829,0.611096 0.387502,0.287275 0.730701,0.629045 1.076352,0.965512 0.345652,0.336467 0.697428,0.670682 1.097911,0.939565 0.400483,0.268884 0.855227,0.471641 1.335383,0.517854 0.67961,0.06541 1.359414,-0.188945 1.922886,-0.574492 0.563473,-0.385547 1.027803,-0.896326 1.483203,-1.40501 0.4554,-0.508684 0.912395,-1.024721 1.465807,-1.424576 0.553411,-0.399856 1.220135,-0.679373 1.902203,-0.648857 0.744917,0.03333 1.431854,0.431336 1.98332,0.933231 0.551465,0.501895 0.994237,1.109189 1.482102,1.673103 0.487866,0.563915 1.040721,1.09873 1.726845,1.3907 0.343062,0.145986 0.716274,0.227748 1.088796,0.212569 0.372522,-0.01518 0.744006,-0.13006 1.045837,-0.348924 0.304837,-0.221044 0.52821,-0.537802 0.702855,-0.871396 0.174646,-0.333594 0.305594,-0.688028 0.462222,-1.030452 0.156628,-0.342423 0.342656,-0.677864 0.608416,-0.944619 0.265759,-0.266755 0.620734,-0.460565 0.997162,-0.469945 0.322064,-0.008 0.638426,0.119699 0.893151,0.316943 0.254724,0.197244 0.452024,0.460501 0.610391,0.741053 0.316733,0.561106 0.488123,1.198665 0.838697,1.739273 0.481368,0.742303 1.277378,1.248254 2.130003,1.484391 0.852624,0.236136 1.759542,0.219387 2.631903,0.07203 1.744722,-0.294718 3.371353,-1.094997 5.112516,-1.41006 0.603328,-0.109172 1.217342,-0.15921 1.830386,-0.149164"
       id="path17752"
       inkscape:path-effect="#path-effect17756"
       inkscape:original-d="m 1.6889322,50.512139 c 0.6320461,-0.115655 -0.78490067,0.753626 1.8929146,-0.350188 2.6778154,-1.103815 2.8786014,-3.614156 4.0777499,-2.415857 1.1991485,1.198298 5.7393283,3.971115 7.5466933,2.692862 1.807366,-1.278254 3.867849,-3.462452 5.497916,-1.756059 1.630069,1.706392 2.03317,4.692034 4.807936,3.034027 2.774765,-1.658007 4.846382,-5.649005 6.774099,-4.052935 1.927717,1.596071 6.363354,6.073185 7.3269,3.860679 0.963545,-2.212507 2.027754,-5.35802 2.770655,-3.316412 0.742901,2.041608 -0.950311,2.747408 2.342239,2.797269 3.292548,0.04986 6.584022,0.09865 9.874422,0.146359 3.290399,0.04771 1.221332,-0.09837 1.830386,-0.149164"
       sodipodi:nodetypes="csssssssscsc" />
  </g>
</svg>
