<?xml version="1.0" encoding="UTF-8" standalone="no"?>
<!-- Created with Inkscape (http://www.inkscape.org/) -->

<svg
   width="14.249629mm"
   height="5.0336599mm"
   viewBox="0 0 14.249629 5.0336599"
   version="1.1"
   id="svg3670"
   inkscape:version="1.1.2 (0a00cf5339, 2022-02-04)"
   sodipodi:docname="rennes.svg"
   xmlns:inkscape="http://www.inkscape.org/namespaces/inkscape"
   xmlns:sodipodi="http://sodipodi.sourceforge.net/DTD/sodipodi-0.dtd"
   xmlns="http://www.w3.org/2000/svg"
   xmlns:svg="http://www.w3.org/2000/svg">
  <sodipodi:namedview
     id="namedview3672"
     pagecolor="#ffffff"
     bordercolor="#666666"
     borderopacity="1.0"
     inkscape:pageshadow="2"
     inkscape:pageopacity="0.0"
     inkscape:pagecheckerboard="0"
     inkscape:document-units="mm"
     showgrid="false"
     lock-margins="true"
     fit-margin-top="0.5"
     fit-margin-left="0.5"
     fit-margin-right="0.5"
     fit-margin-bottom="0.5"
     inkscape:zoom="15.017488"
     inkscape:cx="24.604648"
     inkscape:cy="-2.896623"
     inkscape:window-width="1920"
     inkscape:window-height="1011"
     inkscape:window-x="0"
     inkscape:window-y="0"
     inkscape:window-maximized="1"
     inkscape:current-layer="g428" />
  <defs
     id="defs3667" />
  <g
     inkscape:label="Layer 1"
     inkscape:groupmode="layer"
     id="layer1"
     transform="translate(-122.8376,-125.05364)">
    <g
       id="g1135"
       fill="currentColor">
      <g
         id="g428"
         transform="matrix(0.35277777,0,0,-0.35277777,125.35412,128.14091)">
        <path
           d="M 0,0 3.234,-3.234 3.773,-2.695 0.539,0.539 Z"
           style="fill-opacity:1;fill-rule:evenodd;stroke:none"
           id="path430" />
      </g>
      <g
         id="g432"
         transform="matrix(0.35277777,0,0,-0.35277777,125.73437,127.76065)"
         style="fill-rule:evenodd">
        <path
           d="M 0,0 3.234,-3.234 3.773,-2.695 0.539,0.539 Z"
           style="fill-opacity:1;fill-rule:evenodd;stroke:none"
           id="path434" />
      </g>
      <g
         id="g436"
         transform="matrix(0.35277777,0,0,-0.35277777,123.64297,126.42976)"
         style="fill-rule:evenodd">
        <path
           d="M 0,0 3.234,-3.234 3.773,-2.695 0.539,0.539 Z"
           style="fill-opacity:1;fill-rule:evenodd;stroke:none"
           id="path438" />
      </g>
      <g
         id="g440"
         transform="matrix(0.35277777,0,0,-0.35277777,124.02323,126.0495)"
         style="fill-rule:evenodd">
        <path
           d="M 0,0 3.234,-3.234 3.773,-2.695 0.539,0.539 Z"
           style="fill-opacity:1;fill-rule:evenodd;stroke:none"
           id="path442" />
      </g>
      <g
         id="g444"
         transform="matrix(0.35277777,0,0,-0.35277777,126.49489,125.85939)"
         style="fill-rule:evenodd">
        <path
           d="m 0,0 -3.234,-3.234 0.539,-0.539 3.234,3.234 z"
           style="fill-opacity:1;fill-rule:evenodd;stroke:none"
           id="path446" />
      </g>
      <g
         id="g448"
         transform="matrix(0.35277777,0,0,-0.35277777,126.87515,126.23965)"
         style="fill-rule:evenodd">
        <path
           d="m 0,0 -3.234,-3.234 0.539,-0.539 3.234,3.234 z"
           style="fill-opacity:1;fill-rule:evenodd;stroke:none"
           id="path450" />
      </g>
      <g
         id="g452"
         transform="matrix(0.35277777,0,0,-0.35277777,124.78374,127.57054)"
         style="fill-rule:evenodd">
        <path
           d="m 0,0 -3.234,-3.234 0.539,-0.539 3.234,3.234 z"
           style="fill-opacity:1;fill-rule:evenodd;stroke:none"
           id="path454" />
      </g>
      <g
         id="g456"
         transform="matrix(0.35277777,0,0,-0.35277777,125.164,127.9508)"
         style="fill-rule:evenodd">
        <path
           d="m 0,0 -3.234,-3.234 0.539,-0.539 3.234,3.234 z"
           style="fill-opacity:1;fill-rule:evenodd;stroke:none"
           id="path458" />
      </g>
      <path
         d="m 124.95085,126.36044 h 0.26882 v -0.8068 h -0.26882 z"
         style="fill-opacity:1;fill-rule:evenodd;stroke:none;stroke-width:0.352778"
         id="path460" />
      <path
         d="m 125.48849,126.36044 h 0.26881 v -0.8068 h -0.26881 z"
         style="fill-opacity:1;fill-rule:evenodd;stroke:none;stroke-width:0.352778"
         id="path462" />
      <path
         d="m 124.95085,129.5873 h 0.26882 v -0.8068 h -0.26882 z"
         style="fill-opacity:1;fill-rule:evenodd;stroke:none;stroke-width:0.352778"
         id="path464" />
      <path
         d="m 125.48849,129.5873 h 0.26881 v -0.8068 h -0.26881 z"
         style="fill-opacity:1;fill-rule:evenodd;stroke:none;stroke-width:0.352778"
         id="path466" />
      <path
         d="m 127.37056,127.16724 h -0.80681 v 0.26882 h 0.80681 z"
         style="fill-opacity:1;fill-rule:evenodd;stroke:none;stroke-width:0.352778"
         id="path468" />
      <path
         d="m 127.37056,127.70488 h -0.80681 v 0.26881 h 0.80681 z"
         style="fill-opacity:1;fill-rule:evenodd;stroke:none;stroke-width:0.352778"
         id="path470" />
      <path
         d="m 123.3376,127.43606 h 0.8068 v -0.26882 h -0.8068 z"
         style="fill-opacity:1;fill-rule:evenodd;stroke:none;stroke-width:0.352778"
         id="path472" />
      <path
         d="m 123.3376,127.97369 h 0.8068 v -0.26881 h -0.8068 z"
         style="fill-opacity:1;fill-rule:evenodd;stroke:none;stroke-width:0.352778"
         id="path474" />
      <g
         id="g476"
         transform="matrix(0.35277777,0,0,-0.35277777,130.70731,129.04353)"
         style="fill-rule:evenodd">
        <path
           d="M 0,0 H 0.684 V 1.269 H 0.999 L 1.595,0 H 2.309 L 1.647,1.388 C 2.03,1.585 2.232,1.983 2.232,2.366 v 0.005 c 0,0.653 -0.554,1.088 -1.114,1.088 H 0 Z M 0.684,1.916 V 2.812 H 1.01 C 1.336,2.812 1.553,2.636 1.559,2.366 1.553,2.061 1.341,1.916 1.01,1.916 Z M 5.131,1.362 c 0,0.73 -0.481,1.284 -1.253,1.284 -0.802,0 -1.289,-0.611 -1.289,-1.341 0,-0.756 0.487,-1.362 1.289,-1.362 0.575,0 0.901,0.218 1.191,0.58 L 4.567,0.885 C 4.391,0.668 4.199,0.554 3.92,0.554 3.588,0.554 3.35,0.751 3.278,1.077 H 5.116 C 5.131,1.175 5.131,1.274 5.131,1.362 M 3.288,1.548 c 0.072,0.301 0.29,0.471 0.611,0.471 0.264,0 0.492,-0.16 0.554,-0.471 z M 5.633,0 h 0.684 v 1.714 c 0.057,0.098 0.212,0.295 0.538,0.295 0.337,0 0.534,-0.238 0.534,-0.544 V 0 h 0.673 v 1.465 c 0,0.673 -0.404,1.176 -1.181,1.176 -0.207,0 -0.404,-0.047 -0.564,-0.15 V 2.589 H 5.633 Z m 3.024,0 h 0.684 v 1.714 c 0.057,0.098 0.212,0.295 0.538,0.295 0.337,0 0.534,-0.238 0.534,-0.544 V 0 h 0.673 v 1.465 c 0,0.673 -0.404,1.176 -1.181,1.176 -0.207,0 -0.404,-0.047 -0.564,-0.15 V 2.589 H 8.657 Z m 5.447,1.362 c 0,0.73 -0.481,1.284 -1.253,1.284 -0.802,0 -1.289,-0.611 -1.289,-1.341 0,-0.756 0.487,-1.362 1.289,-1.362 0.575,0 0.901,0.218 1.191,0.58 L 13.54,0.885 C 13.364,0.668 13.172,0.554 12.893,0.554 c -0.332,0 -0.57,0.197 -0.642,0.523 h 1.838 c 0.015,0.098 0.015,0.197 0.015,0.285 m -1.843,0.186 c 0.073,0.301 0.29,0.471 0.611,0.471 0.264,0 0.492,-0.16 0.554,-0.471 z M 14.757,0.73 14.451,0.606 c 0.202,-0.389 0.575,-0.663 1.175,-0.663 0.632,0 1.015,0.368 1.015,0.808 0,0.44 -0.253,0.683 -0.932,0.834 l -0.046,0.01 c -0.383,0.083 -0.482,0.14 -0.482,0.279 0,0.109 0.135,0.218 0.373,0.218 0.264,0 0.456,-0.15 0.518,-0.347 l 0.3,0.109 0.295,0.119 c -0.134,0.445 -0.523,0.673 -1.103,0.673 -0.678,0 -1.03,-0.388 -1.03,-0.808 0,-0.466 0.321,-0.689 0.917,-0.828 l 0.067,-0.016 c 0.399,-0.093 0.461,-0.14 0.461,-0.264 0,-0.145 -0.145,-0.223 -0.368,-0.223 -0.269,0 -0.466,0.151 -0.564,0.347 z m 0.652,1.144 c 0,-0.01 -0.005,-0.01 0.01,-0.01 -0.01,0 -0.01,0.005 -0.01,0.01"
           style="fill-opacity:1;fill-rule:evenodd;stroke:none"
           id="path478" />
      </g>
      <g
         id="g480"
         transform="matrix(0.35277777,0,0,-0.35277777,128.17736,125.94116)"
         style="fill-rule:evenodd">
        <path
           d="m 0,0 v -2.087 c 0,-0.849 0.538,-1.424 1.403,-1.424 0.865,0 1.409,0.575 1.409,1.424 V 0 H 2.128 v -2.087 c 0,-0.466 -0.269,-0.75 -0.725,-0.75 -0.455,0 -0.719,0.284 -0.719,0.75 V 0 Z m 3.459,-3.459 h 0.683 v 1.714 c 0.057,0.098 0.213,0.295 0.539,0.295 0.336,0 0.533,-0.238 0.533,-0.544 v -1.465 h 0.673 v 1.465 c 0,0.674 -0.404,1.176 -1.18,1.176 -0.208,0 -0.404,-0.047 -0.565,-0.15 V -0.87 H 3.459 Z m 3.044,0 H 7.166 V -0.87 H 6.503 Z m -0.01,3.081 H 7.177 V 0.326 H 6.493 Z M 9.33,-3.459 10.304,-0.87 H 9.594 L 8.958,-2.563 8.279,-0.87 H 7.57 l 1.051,-2.589 z m 3.728,1.362 c 0,0.73 -0.481,1.284 -1.252,1.284 -0.803,0 -1.29,-0.611 -1.29,-1.341 0,-0.756 0.487,-1.362 1.29,-1.362 0.574,0 0.9,0.218 1.19,0.58 l -0.502,0.363 c -0.176,-0.218 -0.367,-0.332 -0.647,-0.332 -0.332,0 -0.57,0.197 -0.642,0.523 h 1.838 c 0.015,0.099 0.015,0.197 0.015,0.285 m -1.843,0.186 c 0.073,0.301 0.29,0.471 0.611,0.471 0.264,0 0.492,-0.16 0.554,-0.471 z m 2.356,-1.548 h 0.694 v 1.719 l 0.797,0.311 v 0.673 l -0.797,-0.305 v 0.191 h -0.694 z m 2.076,0.73 -0.305,-0.124 c 0.202,-0.388 0.575,-0.663 1.175,-0.663 0.632,0 1.015,0.368 1.015,0.808 0,0.44 -0.253,0.683 -0.932,0.834 l -0.047,0.01 c -0.383,0.083 -0.481,0.14 -0.481,0.279 0,0.109 0.135,0.218 0.373,0.218 0.264,0 0.455,-0.15 0.518,-0.347 l 0.3,0.109 0.295,0.119 c -0.135,0.445 -0.523,0.673 -1.103,0.673 -0.678,0 -1.03,-0.388 -1.03,-0.808 0,-0.466 0.321,-0.688 0.916,-0.828 l 0.068,-0.016 c 0.398,-0.093 0.46,-0.14 0.46,-0.264 0,-0.145 -0.145,-0.222 -0.367,-0.222 -0.27,0 -0.466,0.15 -0.564,0.346 z m 0.653,1.144 c 0,-0.01 -0.005,-0.01 0.01,-0.01 -0.01,0 -0.01,0.005 -0.01,0.01 m 1.786,-1.874 h 0.663 v 2.589 h -0.663 z m -0.01,3.081 h 0.684 v 0.704 h -0.684 z m 1.626,-3.081 h 0.662 v 1.963 h 0.72 v 0.626 h -0.72 v 0.787 H 19.702 V -0.87 h -0.518 v -0.626 h 0.518 z m 4.137,1.362 c 0,0.73 -0.482,1.284 -1.253,1.284 -0.803,0 -1.29,-0.611 -1.29,-1.341 0,-0.756 0.487,-1.362 1.29,-1.362 0.574,0 0.901,0.218 1.191,0.58 l -0.503,0.363 c -0.176,-0.218 -0.367,-0.332 -0.647,-0.332 -0.331,0 -0.569,0.197 -0.642,0.523 h 1.838 c 0.016,0.099 0.016,0.197 0.016,0.285 m -1.844,0.186 c 0.073,0.301 0.29,0.471 0.611,0.471 0.264,0 0.492,-0.16 0.554,-0.471 z m 0.233,1.398 h 0.684 l 0.518,0.86 h -0.736 z"
           style="fill-opacity:1;fill-rule:evenodd;stroke:none"
           id="path482" />
      </g>
      <g
         id="g484"
         transform="matrix(0.35277777,0,0,-0.35277777,128.85688,129.04353)"
         style="fill-rule:evenodd">
        <path
           d="M 0,0 H 0.694 V 3.806 H 0 v -1.29 c -0.197,0.083 -0.393,0.13 -0.601,0.13 -0.745,0 -1.325,-0.554 -1.325,-1.352 0,-0.787 0.528,-1.351 1.325,-1.351 0.187,0 0.389,0.036 0.601,0.166 z m -1.243,1.294 c 0,0.461 0.327,0.72 0.72,0.72 0.181,0 0.368,-0.067 0.523,-0.165 L 0,0.782 C -0.135,0.658 -0.29,0.575 -0.533,0.575 c -0.378,0 -0.71,0.259 -0.71,0.719 M 3.65,1.362 c 0,0.73 -0.481,1.284 -1.253,1.284 -0.802,0 -1.289,-0.611 -1.289,-1.341 0,-0.756 0.487,-1.362 1.289,-1.362 0.575,0 0.901,0.218 1.191,0.58 L 3.086,0.885 C 2.91,0.668 2.718,0.554 2.439,0.554 2.107,0.554 1.869,0.751 1.797,1.077 H 3.635 C 3.65,1.175 3.65,1.274 3.65,1.362 M 1.807,1.548 c 0.072,0.301 0.29,0.471 0.611,0.471 0.264,0 0.492,-0.16 0.554,-0.471 z"
           style="fill-opacity:1;fill-rule:evenodd;stroke:none"
           id="path486" />
      </g>
    </g>
  </g>
</svg>
