<?xml version="1.0" encoding="UTF-8" standalone="no"?>
<!-- Created with Inkscape (http://www.inkscape.org/) -->

<svg
   version="1.1"
   id="svg2"
   xml:space="preserve"
   width="551.31732"
   height="309.40268"
   viewBox="0 0 551.31732 309.40268"
   sodipodi:docname="ujm-01.svg"
   inkscape:version="1.1.2 (0a00cf5339, 2022-02-04)"
   xmlns:inkscape="http://www.inkscape.org/namespaces/inkscape"
   xmlns:sodipodi="http://sodipodi.sourceforge.net/DTD/sodipodi-0.dtd"
   xmlns="http://www.w3.org/2000/svg"
   xmlns:svg="http://www.w3.org/2000/svg"><defs
     id="defs6"><clipPath
       clipPathUnits="userSpaceOnUse"
       id="clipPath16"><path
         d="M 0,232.052 H 413.488 V 0 H 0 Z"
         id="path14" /></clipPath></defs><sodipodi:namedview
     id="namedview4"
     pagecolor="#ffffff"
     bordercolor="#666666"
     borderopacity="1.0"
     inkscape:pageshadow="2"
     inkscape:pageopacity="0.0"
     inkscape:pagecheckerboard="0"
     showgrid="false"
     inkscape:zoom="1.2134573"
     inkscape:cx="260.00092"
     inkscape:cy="156.16537"
     inkscape:window-width="1920"
     inkscape:window-height="1011"
     inkscape:window-x="0"
     inkscape:window-y="0"
     inkscape:window-maximized="1"
     inkscape:current-layer="g10" /><g
     id="g8"
     inkscape:groupmode="layer"
     inkscape:label="ujm-01"
     transform="matrix(1.3333333,0,0,-1.3333333,0,309.40267)"><g
       id="g10"
       fill="currentColor"><g
         id="g18"
         transform="translate(173.8259,139.1118)"><path
           d="m 0,0 c -2.17,0 -4.004,0.403 -5.502,1.209 -1.499,0.806 -2.641,1.948 -3.426,3.426 -0.785,1.477 -1.178,3.228 -1.178,5.254 V 23.25 H -4.34 V 9.765 C -4.34,8.876 -4.169,8.101 -3.828,7.44 -3.487,6.778 -2.997,6.272 -2.356,5.921 -1.715,5.569 -0.93,5.394 0,5.394 c 0.93,0 1.715,0.175 2.356,0.527 0.641,0.351 1.126,0.852 1.457,1.504 0.331,0.651 0.496,1.43 0.496,2.34 V 23.25 h 5.766 V 9.889 C 10.075,7.863 9.688,6.112 8.913,4.635 8.138,3.157 7.001,2.015 5.502,1.209 4.004,0.403 2.17,0 0,0"
           style="fill-opacity:1;fill-rule:nonzero;stroke:none"
           id="path20" /></g><g
         id="g22"
         transform="translate(187.8068,139.7319)"><path
           d="M 0,0 V 17.112 H 4.464 V 9.765 H 4.216 c 0,1.777 0.227,3.25 0.682,4.418 0.455,1.167 1.132,2.04 2.031,2.619 0.899,0.578 1.988,0.868 3.27,0.868 h 0.248 c 1.943,0 3.446,-0.646 4.511,-1.938 1.064,-1.292 1.596,-3.27 1.596,-5.936 V 0 h -5.642 v 9.951 c 0,0.785 -0.232,1.431 -0.697,1.938 -0.465,0.506 -1.101,0.759 -1.907,0.759 -0.806,0 -1.452,-0.253 -1.937,-0.759 -0.486,-0.507 -0.729,-1.174 -0.729,-2 L 5.642,0 Z"
           style="fill-opacity:1;fill-rule:nonzero;stroke:none"
           id="path24" /></g><path
         d="m 208.949,156.844 h 5.642 v -17.112 h -5.642 z m 2.325,1.364 c -1.034,0 -1.793,0.263 -2.279,0.79 -0.486,0.527 -0.728,1.204 -0.728,2.031 0,0.826 0.242,1.503 0.728,2.031 0.486,0.526 1.235,0.79 2.248,0.79 1.033,0 1.787,-0.264 2.263,-0.79 0.475,-0.528 0.713,-1.205 0.713,-2.031 0,-0.827 -0.238,-1.504 -0.713,-2.031 -0.476,-0.527 -1.22,-0.79 -2.232,-0.79 m -4.495,-1.364 h 7.812 v -4.092 h -7.812 z"
         style="fill-opacity:1;fill-rule:nonzero;stroke:none"
         id="path26" /><g
         id="g28"
         transform="translate(225.7502,139.7319)"><path
           d="M 0,0 3.875,17.112 H 9.269 L 5.053,0 Z M -1.984,4.712 H 3.503 V 0 H -1.984 Z M -3.782,0 -8.68,17.112 h 5.766 L 1.643,0 Z"
           style="fill-opacity:1;fill-rule:nonzero;stroke:none"
           id="path30" /></g><g
         id="g32"
         transform="translate(245.2189,139.1118)"><path
           d="M 0,0 C -1.447,0 -2.728,0.248 -3.844,0.744 -4.96,1.24 -5.901,1.912 -6.665,2.759 -7.43,3.606 -8.014,4.557 -8.417,5.611 -8.82,6.665 -9.021,7.75 -9.021,8.866 v 0.62 c 0,1.157 0.201,2.268 0.604,3.333 0.403,1.064 0.981,2.009 1.736,2.836 0.754,0.826 1.679,1.483 2.775,1.969 1.095,0.485 2.335,0.728 3.72,0.728 1.839,0 3.399,-0.414 4.681,-1.24 1.281,-0.827 2.263,-1.917 2.945,-3.27 0.682,-1.354 1.023,-2.827 1.023,-4.418 V 7.626 H -6.665 v 3.038 H 5.208 L 3.255,9.3 c 0,0.971 -0.13,1.793 -0.388,2.465 -0.258,0.671 -0.64,1.182 -1.147,1.534 -0.506,0.351 -1.142,0.527 -1.906,0.527 -0.744,0 -1.39,-0.17 -1.938,-0.512 -0.547,-0.34 -0.966,-0.857 -1.255,-1.549 -0.29,-0.693 -0.434,-1.566 -0.434,-2.62 0,-0.951 0.134,-1.772 0.403,-2.464 0.268,-0.693 0.682,-1.225 1.24,-1.597 0.558,-0.372 1.281,-0.558 2.17,-0.558 0.785,0 1.431,0.134 1.937,0.403 0.506,0.268 0.863,0.63 1.07,1.085 H 8.153 C 7.905,4.856 7.414,3.823 6.68,2.914 5.946,2.004 5.017,1.292 3.89,0.775 2.764,0.259 1.467,0 0,0"
           style="fill-opacity:1;fill-rule:nonzero;stroke:none"
           id="path34" /></g><g
         id="g36"
         transform="translate(256.6569,139.7319)"><path
           d="M 0,0 V 17.112 H 4.464 V 9.672 H 4.402 c 0,2.397 0.501,4.278 1.504,5.642 1.002,1.364 2.443,2.046 4.324,2.046 h 0.682 V 12.524 H 9.61 C 8.349,12.524 7.373,12.183 6.681,11.501 5.988,10.819 5.642,9.837 5.642,8.556 V 0 Z"
           style="fill-opacity:1;fill-rule:nonzero;stroke:none"
           id="path38" /></g><g
         id="g40"
         transform="translate(276.59,139.1738)"><path
           d="M 0,0 C -2.48,0 -4.433,0.512 -5.859,1.535 -7.285,2.558 -8.05,3.999 -8.153,5.859 h 4.96 C -3.111,5.342 -2.79,4.898 -2.232,4.526 -1.674,4.154 -0.889,3.968 0.124,3.968 0.847,3.968 1.473,4.077 2,4.293 2.526,4.511 2.79,4.867 2.79,5.363 2.79,5.797 2.583,6.154 2.17,6.433 1.756,6.711 1.002,6.902 -0.093,7.006 L -1.271,7.13 c -2.191,0.227 -3.803,0.827 -4.836,1.798 -1.034,0.971 -1.55,2.191 -1.55,3.658 0,1.261 0.31,2.299 0.93,3.116 0.62,0.816 1.477,1.43 2.573,1.844 1.095,0.413 2.345,0.62 3.751,0.62 2.294,0 4.143,-0.501 5.549,-1.503 1.405,-1.003 2.149,-2.445 2.232,-4.325 h -4.96 c -0.083,0.516 -0.362,0.956 -0.837,1.318 -0.476,0.361 -1.158,0.542 -2.046,0.542 -0.641,0 -1.162,-0.114 -1.565,-0.341 -0.404,-0.228 -0.605,-0.548 -0.605,-0.961 0,-0.434 0.191,-0.754 0.573,-0.961 0.383,-0.206 0.998,-0.362 1.845,-0.465 L 0.961,11.346 C 3.151,11.119 4.841,10.514 6.029,9.533 7.218,8.551 7.812,7.264 7.812,5.673 7.812,4.495 7.497,3.482 6.867,2.635 6.236,1.788 5.337,1.136 4.169,0.682 3.002,0.228 1.612,0 0,0"
           style="fill-opacity:1;fill-rule:nonzero;stroke:none"
           id="path42" /></g><path
         d="m 288.029,156.844 h 5.642 v -17.112 h -5.642 z m 2.325,1.364 c -1.034,0 -1.793,0.263 -2.279,0.79 -0.485,0.527 -0.728,1.204 -0.728,2.031 0,0.826 0.243,1.503 0.728,2.031 0.486,0.526 1.235,0.79 2.248,0.79 1.033,0 1.787,-0.264 2.263,-0.79 0.475,-0.528 0.713,-1.205 0.713,-2.031 0,-0.827 -0.238,-1.504 -0.713,-2.031 -0.476,-0.527 -1.22,-0.79 -2.232,-0.79 m -4.495,-1.364 h 7.812 v -4.092 h -7.812 z"
         style="fill-opacity:1;fill-rule:nonzero;stroke:none"
         id="path44" /><g
         id="g46"
         transform="translate(305.9782,139.4838)"><path
           d="m 0,0 c -1.86,0 -3.343,0.228 -4.449,0.682 -1.106,0.454 -1.906,1.209 -2.402,2.263 -0.496,1.054 -0.744,2.48 -0.744,4.278 l 0.031,14.601 h 5.208 L -2.387,7.068 c 0,-0.765 0.201,-1.348 0.604,-1.752 0.403,-0.402 0.987,-0.604 1.752,-0.604 H 2.325 V 0 Z m -10.075,17.36 h 12.4 v -4.092 h -12.4 z"
           style="fill-opacity:1;fill-rule:nonzero;stroke:none"
           id="path48" /></g><g
         id="g50"
         transform="translate(316.3625,158.7041)"><path
           d="M 0,0 2.79,6.572 H 8.556 L 4.96,0 Z m 2.945,-19.592 c -1.447,0 -2.728,0.248 -3.844,0.744 -1.116,0.496 -2.057,1.167 -2.821,2.015 -0.765,0.847 -1.348,1.798 -1.751,2.852 -0.404,1.054 -0.605,2.139 -0.605,3.255 v 0.62 c 0,1.157 0.201,2.268 0.605,3.333 0.403,1.064 0.981,2.009 1.736,2.836 0.754,0.826 1.678,1.482 2.774,1.968 1.095,0.486 2.336,0.729 3.72,0.729 1.839,0 3.4,-0.414 4.681,-1.24 1.281,-0.827 2.263,-1.917 2.945,-3.27 0.682,-1.354 1.023,-2.827 1.023,-4.418 v -1.798 H -3.72 v 3.038 H 8.153 L 6.2,-10.292 c 0,0.971 -0.129,1.792 -0.388,2.464 -0.258,0.672 -0.64,1.183 -1.146,1.535 -0.507,0.351 -1.143,0.527 -1.907,0.527 -0.744,0 -1.39,-0.171 -1.937,-0.512 -0.548,-0.341 -0.967,-0.857 -1.256,-1.55 -0.29,-0.693 -0.434,-1.565 -0.434,-2.619 0,-0.951 0.134,-1.773 0.403,-2.465 0.268,-0.692 0.682,-1.224 1.24,-1.596 0.558,-0.372 1.281,-0.558 2.17,-0.558 0.785,0 1.431,0.134 1.938,0.403 0.506,0.268 0.862,0.63 1.069,1.085 h 5.146 c -0.248,-1.158 -0.739,-2.191 -1.473,-3.1 -0.733,-0.91 -1.663,-1.623 -2.79,-2.139 -1.126,-0.516 -2.423,-0.775 -3.89,-0.775"
           style="fill-opacity:1;fill-rule:nonzero;stroke:none"
           id="path52" /></g><path
         d="m 165.394,129.362 h 14.508 v -5.022 h -14.508 z m 5.983,-23.25 c -1.798,0 -3.332,0.331 -4.603,0.992 -1.271,0.661 -2.243,1.617 -2.914,2.867 -0.672,1.251 -1.008,2.764 -1.008,4.542 v 1.24 h 5.704 v -1.426 c 0,-0.827 0.243,-1.504 0.728,-2.031 0.486,-0.527 1.173,-0.79 2.062,-0.79 0.889,0 1.576,0.263 2.061,0.79 0.486,0.527 0.729,1.204 0.729,2.031 v 10.633 h 5.766 v -10.447 c 0,-1.778 -0.336,-3.291 -1.007,-4.542 -0.672,-1.25 -1.638,-2.206 -2.899,-2.867 -1.261,-0.661 -2.801,-0.992 -4.619,-0.992"
         style="fill-opacity:1;fill-rule:nonzero;stroke:none"
         id="path54" /><g
         id="g56"
         transform="translate(191.8991,106.1118)"><path
           d="M 0,0 C -1.447,0 -2.728,0.248 -3.844,0.744 -4.96,1.24 -5.901,1.912 -6.665,2.759 -7.43,3.606 -8.014,4.557 -8.417,5.611 -8.82,6.665 -9.021,7.75 -9.021,8.866 v 0.62 c 0,1.157 0.201,2.268 0.604,3.333 0.403,1.064 0.981,2.009 1.736,2.836 0.754,0.826 1.679,1.483 2.775,1.969 1.095,0.485 2.335,0.728 3.72,0.728 1.839,0 3.399,-0.414 4.681,-1.24 1.281,-0.827 2.263,-1.917 2.945,-3.27 0.682,-1.354 1.023,-2.827 1.023,-4.418 V 7.626 H -6.665 v 3.038 H 5.208 L 3.255,9.3 c 0,0.971 -0.13,1.793 -0.388,2.465 -0.258,0.671 -0.64,1.182 -1.147,1.534 -0.506,0.351 -1.142,0.527 -1.906,0.527 -0.744,0 -1.39,-0.17 -1.938,-0.512 -0.547,-0.34 -0.966,-0.857 -1.255,-1.549 -0.29,-0.693 -0.434,-1.566 -0.434,-2.62 0,-0.951 0.134,-1.772 0.403,-2.464 0.268,-0.693 0.682,-1.225 1.24,-1.597 0.558,-0.372 1.281,-0.558 2.17,-0.558 0.785,0 1.431,0.134 1.937,0.403 0.506,0.268 0.863,0.63 1.07,1.085 H 8.153 C 7.905,4.856 7.414,3.823 6.68,2.914 5.946,2.004 5.017,1.292 3.89,0.775 2.764,0.259 1.467,0 0,0"
           style="fill-opacity:1;fill-rule:nonzero;stroke:none"
           id="path58" /></g><g
         id="g60"
         transform="translate(213.6916,106.7319)"><path
           d="m 0,0 v 5.022 h -0.93 v 5.363 c 0,0.785 -0.181,1.369 -0.542,1.752 -0.362,0.382 -0.957,0.573 -1.783,0.573 -0.393,0 -0.972,-0.011 -1.736,-0.031 -0.765,-0.021 -1.571,-0.052 -2.418,-0.093 -0.847,-0.042 -1.623,-0.083 -2.325,-0.124 v 4.712 c 0.496,0.041 1.085,0.082 1.767,0.124 0.682,0.041 1.39,0.072 2.124,0.093 0.733,0.02 1.41,0.031 2.03,0.031 1.756,0 3.25,-0.258 4.48,-0.775 1.229,-0.517 2.169,-1.292 2.821,-2.325 0.651,-1.033 0.976,-2.346 0.976,-3.937 V 0 Z m -5.425,-0.434 c -1.199,0 -2.263,0.217 -3.193,0.651 -0.93,0.434 -1.658,1.059 -2.185,1.875 -0.528,0.817 -0.791,1.793 -0.791,2.93 0,1.281 0.341,2.32 1.023,3.116 0.682,0.795 1.622,1.379 2.821,1.751 1.198,0.372 2.573,0.558 4.123,0.558 H -0.31 V 7.533 h -3.317 c -0.765,0 -1.354,-0.191 -1.767,-0.574 -0.414,-0.382 -0.62,-0.894 -0.62,-1.534 0,-0.62 0.206,-1.121 0.62,-1.504 0.413,-0.382 1.002,-0.573 1.767,-0.573 0.496,0 0.935,0.088 1.317,0.263 0.383,0.176 0.698,0.481 0.946,0.915 0.248,0.434 0.392,1.033 0.434,1.798 L 0.372,5.084 C 0.269,3.906 -0.016,2.909 -0.48,2.092 -0.945,1.276 -1.586,0.651 -2.402,0.217 -3.219,-0.217 -4.227,-0.434 -5.425,-0.434"
           style="fill-opacity:1;fill-rule:nonzero;stroke:none"
           id="path62" /></g><g
         id="g64"
         transform="translate(221.9372,106.7319)"><path
           d="M 0,0 V 17.112 H 4.464 V 9.765 H 4.216 c 0,1.777 0.227,3.25 0.682,4.418 0.455,1.167 1.132,2.04 2.031,2.619 0.899,0.578 1.988,0.868 3.27,0.868 h 0.248 c 1.943,0 3.446,-0.646 4.511,-1.938 1.064,-1.292 1.596,-3.27 1.596,-5.936 V 0 h -5.642 v 9.951 c 0,0.785 -0.232,1.431 -0.697,1.938 -0.465,0.506 -1.101,0.759 -1.907,0.759 -0.806,0 -1.452,-0.253 -1.937,-0.759 -0.486,-0.507 -0.729,-1.174 -0.729,-2 L 5.642,0 Z"
           style="fill-opacity:1;fill-rule:nonzero;stroke:none"
           id="path66" /></g><g
         id="g68"
         transform="translate(248.8449,106.7319)"><path
           d="m 0,0 v 22.63 h 7.998 l 4.65,-11.935 h 0.62 L 17.887,22.63 H 26.04 V 0 H 20.336 V 19.313 L 21.235,19.251 15.407,4.557 H 10.168 L 4.309,19.251 5.27,19.313 V 0 Z"
           style="fill-opacity:1;fill-rule:nonzero;stroke:none"
           id="path70" /></g><g
         id="g72"
         transform="translate(287.7497,110.8237)"><path
           d="M 0,0 C 0.868,0 1.586,0.186 2.155,0.558 2.723,0.93 3.151,1.452 3.441,2.124 3.73,2.795 3.875,3.555 3.875,4.402 3.875,5.291 3.725,6.071 3.426,6.743 3.126,7.414 2.687,7.946 2.108,8.339 1.529,8.731 0.827,8.928 0,8.928 -0.827,8.928 -1.529,8.731 -2.108,8.339 -2.687,7.946 -3.126,7.414 -3.425,6.743 -3.725,6.071 -3.875,5.291 -3.875,4.402 -3.875,3.555 -3.73,2.795 -3.441,2.124 -3.152,1.452 -2.718,0.93 -2.139,0.558 -1.561,0.186 -0.848,0 0,0 m 0,-4.712 c -1.509,0 -2.852,0.228 -4.03,0.682 -1.178,0.454 -2.175,1.085 -2.991,1.891 -0.817,0.806 -1.437,1.736 -1.86,2.79 -0.424,1.054 -0.636,2.181 -0.636,3.379 v 0.744 c 0,1.24 0.222,2.397 0.667,3.472 0.444,1.074 1.079,2.015 1.906,2.821 0.826,0.806 1.829,1.436 3.007,1.891 1.178,0.455 2.49,0.682 3.937,0.682 1.467,0 2.785,-0.227 3.953,-0.682 C 5.12,12.503 6.117,11.873 6.944,11.067 7.771,10.261 8.406,9.32 8.851,8.246 9.295,7.171 9.517,6.014 9.517,4.774 V 4.03 C 9.517,2.832 9.305,1.705 8.882,0.651 8.458,-0.403 7.838,-1.333 7.021,-2.139 6.205,-2.945 5.208,-3.576 4.03,-4.03 2.852,-4.484 1.508,-4.712 0,-4.712"
           style="fill-opacity:1;fill-rule:nonzero;stroke:none"
           id="path74" /></g><g
         id="g76"
         transform="translate(300.3664,106.7319)"><path
           d="M 0,0 V 17.112 H 4.464 V 9.765 H 4.216 c 0,1.777 0.227,3.25 0.682,4.418 0.455,1.167 1.132,2.04 2.031,2.619 0.899,0.578 1.988,0.868 3.27,0.868 h 0.248 c 1.943,0 3.446,-0.646 4.511,-1.938 1.064,-1.292 1.596,-3.27 1.596,-5.936 V 0 h -5.642 v 9.951 c 0,0.785 -0.232,1.431 -0.697,1.938 -0.465,0.506 -1.101,0.759 -1.907,0.759 -0.806,0 -1.452,-0.253 -1.937,-0.759 -0.486,-0.507 -0.729,-1.174 -0.729,-2 L 5.642,0 Z"
           style="fill-opacity:1;fill-rule:nonzero;stroke:none"
           id="path78" /></g><g
         id="g80"
         transform="translate(320.7018,106.7319)"><path
           d="M 0,0 V 17.112 H 4.464 V 9.765 H 4.216 c 0,1.777 0.227,3.25 0.682,4.418 0.455,1.167 1.132,2.04 2.031,2.619 0.899,0.578 1.988,0.868 3.27,0.868 h 0.248 c 1.943,0 3.446,-0.646 4.511,-1.938 1.064,-1.292 1.596,-3.27 1.596,-5.936 V 0 h -5.642 v 9.951 c 0,0.785 -0.232,1.431 -0.697,1.938 -0.465,0.506 -1.101,0.759 -1.907,0.759 -0.806,0 -1.452,-0.253 -1.937,-0.759 -0.486,-0.507 -0.729,-1.174 -0.729,-2 L 5.642,0 Z"
           style="fill-opacity:1;fill-rule:nonzero;stroke:none"
           id="path82" /></g><g
         id="g84"
         transform="translate(349.0671,106.1118)"><path
           d="M 0,0 C -1.447,0 -2.728,0.248 -3.844,0.744 -4.96,1.24 -5.901,1.912 -6.665,2.759 -7.43,3.606 -8.014,4.557 -8.417,5.611 -8.82,6.665 -9.021,7.75 -9.021,8.866 v 0.62 c 0,1.157 0.201,2.268 0.604,3.333 0.403,1.064 0.981,2.009 1.736,2.836 0.754,0.826 1.679,1.483 2.775,1.969 1.095,0.485 2.335,0.728 3.72,0.728 1.839,0 3.399,-0.414 4.681,-1.24 1.281,-0.827 2.263,-1.917 2.945,-3.27 0.682,-1.354 1.023,-2.827 1.023,-4.418 V 7.626 H -6.665 v 3.038 H 5.208 L 3.255,9.3 c 0,0.971 -0.13,1.793 -0.388,2.465 -0.258,0.671 -0.64,1.182 -1.147,1.534 -0.506,0.351 -1.142,0.527 -1.906,0.527 -0.744,0 -1.39,-0.17 -1.938,-0.512 -0.547,-0.34 -0.966,-0.857 -1.255,-1.549 -0.29,-0.693 -0.434,-1.566 -0.434,-2.62 0,-0.951 0.134,-1.772 0.403,-2.464 0.268,-0.693 0.682,-1.225 1.24,-1.597 0.558,-0.372 1.281,-0.558 2.17,-0.558 0.785,0 1.431,0.134 1.937,0.403 0.506,0.268 0.863,0.63 1.07,1.085 H 8.153 C 7.905,4.856 7.414,3.823 6.68,2.914 5.946,2.004 5.017,1.292 3.89,0.775 2.764,0.259 1.467,0 0,0"
           style="fill-opacity:1;fill-rule:nonzero;stroke:none"
           id="path86" /></g><g
         id="g88"
         transform="translate(368.6589,106.4838)"><path
           d="m 0,0 c -1.86,0 -3.343,0.228 -4.449,0.682 -1.106,0.454 -1.906,1.209 -2.402,2.263 -0.496,1.054 -0.744,2.48 -0.744,4.278 l 0.031,14.601 h 5.208 L -2.387,7.068 c 0,-0.765 0.201,-1.348 0.604,-1.752 0.403,-0.402 0.987,-0.604 1.752,-0.604 H 2.325 V 0 Z m -10.075,17.36 h 12.4 v -4.092 h -12.4 z"
           style="fill-opacity:1;fill-rule:nonzero;stroke:none"
           id="path90" /></g><g
         id="g92"
         transform="translate(172.0383,73.2348)"><path
           d="m 0,0 c -1.794,0 -3.305,0.288 -4.533,0.863 -1.229,0.574 -2.16,1.374 -2.794,2.398 -0.633,1.024 -0.95,2.179 -0.95,3.466 h 2.223 c 0,-0.819 0.2,-1.584 0.599,-2.296 0.4,-0.712 1.043,-1.287 1.931,-1.726 C -2.637,2.267 -1.462,2.047 0,2.047 c 1.345,0 2.461,0.195 3.349,0.585 0.887,0.39 1.55,0.916 1.989,1.579 0.438,0.663 0.658,1.404 0.658,2.224 0,1.033 -0.405,1.896 -1.214,2.588 -0.809,0.692 -2.023,1.106 -3.641,1.243 L -1.316,10.5 c -1.833,0.156 -3.29,0.726 -4.372,1.711 -1.083,0.984 -1.624,2.286 -1.624,3.904 0,1.229 0.292,2.311 0.877,3.247 0.585,0.936 1.419,1.677 2.501,2.223 1.082,0.545 2.384,0.819 3.905,0.819 1.54,0 2.861,-0.278 3.963,-0.834 1.101,-0.555 1.945,-1.321 2.53,-2.296 0.585,-0.975 0.877,-2.106 0.877,-3.393 H 5.118 c 0,0.78 -0.175,1.511 -0.526,2.194 -0.351,0.682 -0.907,1.233 -1.667,1.653 -0.76,0.418 -1.745,0.628 -2.954,0.628 -1.151,0 -2.101,-0.195 -2.852,-0.585 -0.751,-0.39 -1.306,-0.906 -1.667,-1.55 -0.361,-0.643 -0.541,-1.345 -0.541,-2.106 0,-0.955 0.341,-1.764 1.024,-2.427 0.682,-0.663 1.667,-1.043 2.954,-1.141 l 2.456,-0.234 c 1.443,-0.117 2.676,-0.434 3.7,-0.95 C 6.069,10.846 6.854,10.173 7.4,9.345 7.945,8.516 8.219,7.546 8.219,6.435 8.219,5.187 7.882,4.075 7.209,3.1 6.537,2.125 5.586,1.364 4.358,0.819 3.129,0.273 1.677,0 0,0"
           style="fill-opacity:1;fill-rule:nonzero;stroke:none"
           id="path94" /></g><g
         id="g96"
         transform="translate(193.9152,73.7319)"><path
           d="m 0,0 v 4.65 h -0.351 v 5.499 c 0,1.15 -0.302,2.033 -0.907,2.647 -0.604,0.614 -1.54,0.921 -2.807,0.921 -0.585,0 -1.175,-0.01 -1.77,-0.029 -0.595,-0.02 -1.16,-0.044 -1.696,-0.073 -0.537,-0.03 -1.01,-0.064 -1.419,-0.102 v 1.93 c 0.429,0.039 0.867,0.078 1.316,0.117 0.448,0.039 0.911,0.063 1.389,0.073 0.478,0.01 0.941,0.014 1.39,0.014 1.579,0 2.852,-0.194 3.816,-0.584 0.966,-0.391 1.672,-1 2.121,-1.828 C 1.53,12.406 1.755,11.309 1.755,9.944 V 0 Z m -5.235,-0.41 c -1.093,0 -2.058,0.196 -2.896,0.585 -0.839,0.39 -1.487,0.955 -1.945,1.697 -0.458,0.741 -0.687,1.638 -0.687,2.69 0,1.034 0.238,1.911 0.716,2.633 0.478,0.721 1.17,1.272 2.077,1.653 0.907,0.38 2.003,0.57 3.29,0.57 h 4.534 V 7.75 h -4.68 c -1.228,0 -2.169,-0.297 -2.822,-0.892 -0.654,-0.594 -0.98,-1.369 -0.98,-2.325 0,-0.975 0.341,-1.75 1.024,-2.325 0.682,-0.575 1.608,-0.863 2.778,-0.863 0.721,0 1.413,0.132 2.076,0.395 0.663,0.263 1.219,0.712 1.668,1.345 0.448,0.634 0.692,1.507 0.731,2.618 L 0.292,4.797 C 0.214,3.646 -0.059,2.686 -0.526,1.916 -0.995,1.145 -1.628,0.565 -2.428,0.175 -3.228,-0.214 -4.163,-0.41 -5.235,-0.41"
           style="fill-opacity:1;fill-rule:nonzero;stroke:none"
           id="path98" /></g><path
         d="m 201.373,89.204 h 2.165 V 73.732 h -2.165 z m 0.468,2.866 c -0.526,0 -0.921,0.141 -1.185,0.425 -0.263,0.282 -0.395,0.638 -0.395,1.067 0,0.429 0.132,0.785 0.395,1.067 0.264,0.283 0.659,0.425 1.185,0.425 0.526,0 0.916,-0.142 1.17,-0.425 0.253,-0.282 0.38,-0.638 0.38,-1.067 0,-0.429 -0.127,-0.785 -0.38,-1.067 -0.254,-0.284 -0.644,-0.425 -1.17,-0.425 m -2.954,-2.866 h 4.65 v -1.755 h -4.65 z"
         style="fill-opacity:1;fill-rule:nonzero;stroke:none"
         id="path100" /><g
         id="g102"
         transform="translate(208.714,73.7319)"><path
           d="M 0,0 V 15.472 H 1.755 V 8.979 H 1.404 c 0,1.443 0.214,2.681 0.643,3.714 0.429,1.034 1.073,1.833 1.931,2.399 0.857,0.565 1.94,0.848 3.246,0.848 h 0.088 c 1.95,0 3.402,-0.609 4.358,-1.828 0.955,-1.219 1.433,-2.93 1.433,-5.133 V 0 h -2.164 v 9.447 c 0,1.345 -0.371,2.428 -1.111,3.246 -0.742,0.82 -1.775,1.229 -3.101,1.229 -1.365,0 -2.462,-0.424 -3.29,-1.272 C 2.608,11.801 2.194,10.685 2.194,9.301 V 0 Z"
           style="fill-opacity:1;fill-rule:nonzero;stroke:none"
           id="path104" /></g><g
         id="g106"
         transform="translate(232.3171,73.5566)"><path
           d="m 0,0 c -1.073,0 -1.999,0.156 -2.778,0.468 -0.781,0.311 -1.385,0.843 -1.814,1.594 -0.429,0.75 -0.643,1.759 -0.643,3.027 v 15.443 h 2.106 V 4.767 c 0,-0.897 0.243,-1.584 0.731,-2.062 0.487,-0.478 1.179,-0.716 2.076,-0.716 H 2.457 V 0 Z M -8.014,15.647 H 2.457 V 13.98 H -8.014 Z"
           style="fill-opacity:1;fill-rule:nonzero;stroke:none"
           id="path108" /></g><path
         d="m 237.172,82.799 h 10.266 v -1.872 h -10.266 z"
         style="fill-opacity:1;fill-rule:nonzero;stroke:none"
         id="path110" /><g
         id="g112"
         transform="translate(257.1188,96.9252)"><path
           d="M 0,0 3.568,4.534 H 6.113 L 2.047,0 Z M -3.042,-21.175 H 7.633 v -2.018 H -3.042 Z m 0,9.827 h 9.681 v -1.989 h -9.681 z m 0,9.506 H 7.312 V -3.86 H -3.042 Z m -1.696,0 h 2.223 v -21.351 h -2.223 z"
           style="fill-opacity:1;fill-rule:nonzero;stroke:none"
           id="path114" /></g><g
         id="g116"
         transform="translate(274.5505,73.5566)"><path
           d="m 0,0 c -1.073,0 -1.999,0.156 -2.778,0.468 -0.781,0.311 -1.385,0.843 -1.814,1.594 -0.429,0.75 -0.643,1.759 -0.643,3.027 v 15.443 h 2.106 V 4.767 c 0,-0.897 0.243,-1.584 0.731,-2.062 0.487,-0.478 1.179,-0.716 2.076,-0.716 H 2.457 V 0 Z M -8.014,15.647 H 2.457 V 13.98 H -8.014 Z"
           style="fill-opacity:1;fill-rule:nonzero;stroke:none"
           id="path118" /></g><path
         d="m 281.482,89.204 h 2.165 V 73.732 h -2.165 z m 0.468,2.866 c -0.526,0 -0.921,0.141 -1.185,0.425 -0.263,0.282 -0.395,0.638 -0.395,1.067 0,0.429 0.132,0.785 0.395,1.067 0.264,0.283 0.659,0.425 1.185,0.425 0.526,0 0.916,-0.142 1.17,-0.425 0.253,-0.282 0.38,-0.638 0.38,-1.067 0,-0.429 -0.127,-0.785 -0.38,-1.067 -0.254,-0.284 -0.644,-0.425 -1.17,-0.425 m -2.954,-2.866 h 4.65 v -1.755 h -4.65 z"
         style="fill-opacity:1;fill-rule:nonzero;stroke:none"
         id="path120" /><g
         id="g122"
         transform="translate(295.2868,73.2348)"><path
           d="M 0,0 C -1.326,0 -2.477,0.229 -3.451,0.687 -4.426,1.145 -5.226,1.759 -5.85,2.53 -6.474,3.3 -6.937,4.163 -7.239,5.118 -7.542,6.073 -7.692,7.058 -7.692,8.072 v 0.41 c 0,0.994 0.15,1.969 0.453,2.925 0.302,0.955 0.765,1.813 1.389,2.573 0.624,0.761 1.409,1.37 2.355,1.828 0.946,0.458 2.052,0.688 3.32,0.688 1.618,0 2.968,-0.361 4.05,-1.082 1.083,-0.722 1.896,-1.643 2.442,-2.765 0.546,-1.121 0.82,-2.325 0.82,-3.611 V 7.897 H -6.698 V 9.593 H 5.616 L 5.06,8.745 c 0,1.15 -0.2,2.159 -0.6,3.027 -0.399,0.868 -0.984,1.55 -1.754,2.047 -0.771,0.498 -1.731,0.746 -2.881,0.746 -1.21,0 -2.214,-0.283 -3.013,-0.848 -0.8,-0.566 -1.399,-1.316 -1.799,-2.252 -0.4,-0.936 -0.599,-1.999 -0.599,-3.188 0,-1.17 0.199,-2.237 0.599,-3.203 0.4,-0.965 1.014,-1.73 1.843,-2.296 C -2.315,2.212 -1.268,1.93 0,1.93 c 1.345,0 2.437,0.307 3.276,0.922 0.838,0.614 1.355,1.34 1.55,2.178 H 6.873 C 6.678,3.997 6.269,3.104 5.645,2.354 5.021,1.604 4.231,1.023 3.276,0.614 2.32,0.205 1.229,0 0,0"
           style="fill-opacity:1;fill-rule:nonzero;stroke:none"
           id="path124" /></g><g
         id="g126"
         transform="translate(306.0495,73.7319)"><path
           d="M 0,0 V 15.472 H 1.755 V 8.979 H 1.404 c 0,1.443 0.214,2.681 0.643,3.714 0.429,1.034 1.073,1.833 1.931,2.399 0.857,0.565 1.94,0.848 3.246,0.848 h 0.088 c 1.95,0 3.402,-0.609 4.358,-1.828 0.955,-1.219 1.433,-2.93 1.433,-5.133 V 0 h -2.164 v 9.447 c 0,1.345 -0.371,2.428 -1.111,3.246 -0.742,0.82 -1.775,1.229 -3.101,1.229 -1.365,0 -2.462,-0.424 -3.29,-1.272 C 2.608,11.801 2.194,10.685 2.194,9.301 V 0 Z"
           style="fill-opacity:1;fill-rule:nonzero;stroke:none"
           id="path128" /></g><g
         id="g130"
         transform="translate(324.0368,73.7319)"><path
           d="M 0,0 V 15.472 H 1.755 V 8.979 H 1.404 c 0,1.443 0.214,2.681 0.643,3.714 0.429,1.034 1.073,1.833 1.931,2.399 0.857,0.565 1.94,0.848 3.246,0.848 h 0.088 c 1.95,0 3.402,-0.609 4.358,-1.828 0.955,-1.219 1.433,-2.93 1.433,-5.133 V 0 h -2.164 v 9.447 c 0,1.345 -0.371,2.428 -1.111,3.246 -0.742,0.82 -1.775,1.229 -3.101,1.229 -1.365,0 -2.462,-0.424 -3.29,-1.272 C 2.608,11.801 2.194,10.685 2.194,9.301 V 0 Z"
           style="fill-opacity:1;fill-rule:nonzero;stroke:none"
           id="path132" /></g><g
         id="g134"
         transform="translate(348.488,73.2348)"><path
           d="M 0,0 C -1.326,0 -2.477,0.229 -3.451,0.687 -4.426,1.145 -5.226,1.759 -5.85,2.53 -6.474,3.3 -6.937,4.163 -7.239,5.118 -7.542,6.073 -7.692,7.058 -7.692,8.072 v 0.41 c 0,0.994 0.15,1.969 0.453,2.925 0.302,0.955 0.765,1.813 1.389,2.573 0.624,0.761 1.409,1.37 2.355,1.828 0.946,0.458 2.052,0.688 3.32,0.688 1.618,0 2.968,-0.361 4.05,-1.082 1.083,-0.722 1.896,-1.643 2.442,-2.765 0.546,-1.121 0.82,-2.325 0.82,-3.611 V 7.897 H -6.698 V 9.593 H 5.616 L 5.06,8.745 c 0,1.15 -0.2,2.159 -0.6,3.027 -0.399,0.868 -0.984,1.55 -1.754,2.047 -0.771,0.498 -1.731,0.746 -2.881,0.746 -1.21,0 -2.214,-0.283 -3.013,-0.848 -0.8,-0.566 -1.399,-1.316 -1.799,-2.252 -0.4,-0.936 -0.599,-1.999 -0.599,-3.188 0,-1.17 0.199,-2.237 0.599,-3.203 0.4,-0.965 1.014,-1.73 1.843,-2.296 C -2.315,2.212 -1.268,1.93 0,1.93 c 1.345,0 2.437,0.307 3.276,0.922 0.838,0.614 1.355,1.34 1.55,2.178 H 6.873 C 6.678,3.997 6.269,3.104 5.645,2.354 5.021,1.604 4.231,1.023 3.276,0.614 2.32,0.205 1.229,0 0,0"
           style="fill-opacity:1;fill-rule:nonzero;stroke:none"
           id="path136" /></g><g
         id="g138"
         transform="translate(113.2836,148.5067)"><path
           d="m 0,0 v 14.05 l -42.278,0.074 V 0.004 l 11.314,-7.137 -11.314,-6.983 V -28.237 L 0,-28.311 v 14.052 h -24.372 l -0.081,0.138 10.333,6.993 -10.329,6.987 0.083,0.141 z"
           style="fill-opacity:1;fill-rule:nonzero;stroke:none"
           id="path140" /></g><g
         id="g142"
         transform="translate(127.2763,162.5564)"><path
           d="m 0,0 v -70.229 c 0,-19.394 -15.779,-35.172 -35.173,-35.172 -19.394,0 -35.173,15.778 -35.173,35.172 V 0 h -14.619 v -70.229 c 0,-27.455 22.337,-49.792 49.792,-49.792 27.456,0 49.792,22.337 49.792,49.792 V 0 Z"
           style="fill-opacity:1;fill-rule:nonzero;stroke:none"
           id="path144" /></g><path
         d="M 141.896,189.796 H 42.312 v -14.12 h 99.584 z"
         style="fill-opacity:1;fill-rule:nonzero;stroke:none"
         id="path146" /><g
         id="g148"
         transform="translate(92.1035,113.1361)"><path
           d="M 0,0 H -21.18 V -14.12 H 0 c 3.899,0 7.06,-3.161 7.06,-7.06 0,-3.899 -3.161,-7.06 -7.06,-7.06 H -7.06 V -42.36 H 0 c 11.698,0 21.18,9.482 21.18,21.18 C 21.18,-9.483 11.698,0 0,0"
           style="fill-opacity:1;fill-rule:nonzero;stroke:none"
           id="path150" /></g></g></g></svg>
